<svg xmlns="http://www.w3.org/2000/svg" width="100%" height="auto" viewBox="0 0 481 362" version="1.1" preserveAspectRatio="xMidYMid meet" style="max-width: 100%; max-height: 70vh;">
	<path d="M 132.040 19.748 C 124.442 19.961, 120.062 20.512, 119.040 21.383 C 117.487 22.707, 114.302 23.621, 101.500 26.418 C 90.394 28.845, 82.960 30, 78.451 30 C 75.956 30, 73.308 30.732, 71.885 31.814 C 67.924 34.826, 59.046 40, 57.838 40 C 57.216 40, 54.410 41.517, 51.604 43.371 C 48.797 45.225, 44.025 47.982, 41 49.498 C 37.975 51.015, 35.342 52.670, 35.150 53.178 C 34.957 53.686, 33.045 55.209, 30.900 56.563 C 28.755 57.917, 27 59.627, 27 60.363 C 27 61.099, 24.525 63.676, 21.500 66.090 C 18.475 68.504, 16 70.852, 16 71.309 C 16 71.766, 14.548 74.246, 12.774 76.820 C 10.606 79.964, 9.111 83.797, 8.219 88.500 C 4.774 106.641, 4.811 105.328, 7.435 115.930 C 8.788 121.399, 10.980 127.592, 12.306 129.692 C 15.356 134.524, 21.734 140.314, 26.924 142.961 C 35.009 147.086, 50 149.601, 50 146.833 C 50 146.192, 49.716 145.951, 49.369 146.298 C 49.021 146.645, 47.796 146.270, 46.646 145.465 C 45.496 144.659, 43.547 144, 42.315 144 C 38.114 144, 29.215 139.941, 24.696 135.964 C 10.120 123.133, 7.393 99.174, 18.192 78.818 C 21.415 72.743, 30.045 63.637, 39 56.863 C 45.900 51.643, 65.589 42.106, 77.751 38.091 C 117.122 25.096, 172.365 26.531, 212.728 41.599 C 223.564 45.644, 231.270 49.308, 234.885 52.135 L 237.270 54 234.635 53.782 C 233.186 53.662, 232 53.256, 232 52.881 C 232 51.830, 224.883 47.872, 223.701 48.266 C 223.126 48.458, 224.083 49.206, 225.828 49.929 C 227.573 50.651, 229 51.654, 229 52.157 C 229 52.667, 228.145 52.613, 227.066 52.035 C 223.744 50.258, 223.381 50.900, 226.292 53.404 C 228.211 55.054, 228.680 55.969, 227.792 56.329 C 227.081 56.617, 229.320 56.596, 232.768 56.282 L 239.035 55.711 242.967 59.845 C 247.669 64.788, 253.654 74.823, 260.043 88.477 C 262.623 93.990, 266.414 102.100, 268.467 106.500 C 270.521 110.900, 272.268 115.469, 272.351 116.654 C 272.433 117.839, 272.794 118.626, 273.154 118.404 C 273.514 118.182, 275.154 121.263, 276.800 125.250 C 278.664 129.767, 280.601 132.877, 281.938 133.500 C 284.340 134.619, 285.768 138.632, 284.290 140.110 C 283.672 140.728, 284.145 142.782, 285.608 145.838 C 293.618 162.576, 302.619 184.931, 302.433 187.624 C 302.299 189.555, 302.695 190.667, 303.516 190.667 C 304.267 190.667, 304.573 190.002, 304.245 189.083 C 302.569 184.376, 305.349 189.847, 309.285 199 C 311.769 204.775, 318.106 219.492, 323.369 231.704 C 331.500 250.575, 332.963 254.787, 333.112 259.765 C 333.266 264.888, 332.957 265.952, 330.644 268.265 C 327.804 271.105, 327.163 275.567, 329.080 279.149 C 331.066 282.860, 325.263 286.863, 322.256 283.856 C 321.397 282.997, 321.255 283.309, 321.687 285.106 C 323.036 290.720, 319.104 284.081, 314.518 273 C 311.900 266.675, 300.324 240.240, 288.794 214.255 L 267.831 167.010 269.919 163.631 L 272.008 160.252 269.118 159.674 C 267.048 159.260, 265.928 158.232, 265.167 156.048 C 264.582 154.372, 263.850 153, 263.539 153 C 263.228 153, 263.660 154.644, 264.500 156.654 C 265.840 159.862, 265.862 162.195, 264.539 160.872 C 264.285 160.618, 259.742 150.981, 254.444 139.455 C 249.145 127.930, 240.178 108.600, 234.516 96.500 C 219.024 63.393, 219.137 63.772, 223.453 59.456 L 225.906 57.003 222.966 55.482 C 220.543 54.229, 216.122 54.009, 197.845 54.231 C 182.456 54.418, 175.550 54.846, 175.289 55.631 C 175.079 56.262, 176.515 57.062, 178.546 57.443 C 180.723 57.851, 183.882 59.694, 186.425 62.038 C 191.335 66.564, 198.005 76.600, 195.451 75.620 C 194.563 75.279, 193.648 75, 193.418 75 C 193.188 75, 193 74.429, 193 73.732 C 193 73.035, 191.822 70.731, 190.383 68.613 C 188.336 65.601, 187.553 65.060, 186.788 66.131 C 186.031 67.192, 185.935 67.115, 186.360 65.786 C 186.962 63.909, 183.638 61.141, 178.500 59.239 C 175.265 58.041, 156.084 56.931, 158.214 58.065 C 158.921 58.441, 163.550 58.972, 168.500 59.246 C 175.429 59.628, 178.373 60.261, 181.293 61.995 C 185.724 64.627, 185.605 65.881, 181.143 63.574 C 179.469 62.708, 177.739 62.004, 177.300 62.009 C 176.337 62.021, 187.177 68.409, 188.250 68.463 C 188.662 68.483, 189 68.838, 189 69.250 C 189 69.662, 189 70.566, 189 71.257 C 189 72.232, 184.216 72.487, 167.750 72.392 C 148.723 72.283, 146.154 72.465, 143.193 74.135 C 141.374 75.161, 139.426 76, 138.865 76 C 138.303 76, 134.471 77.622, 130.348 79.605 L 122.853 83.210 120.395 80.902 C 119.044 79.632, 116.714 78.439, 115.219 78.252 C 112.576 77.920, 112.600 77.979, 116.064 80.365 C 120.179 83.199, 122.171 88.838, 124.048 102.967 C 124.667 107.623, 125.863 112.768, 126.707 114.400 C 128.046 116.990, 128.078 118.642, 126.957 127.433 C 126.251 132.970, 125.746 139.075, 125.834 141 C 125.922 142.925, 125.984 146.599, 125.971 149.166 C 125.959 151.732, 126.676 155.649, 127.565 157.872 C 129.078 161.653, 129.121 163.897, 127.909 176 C 127.826 176.825, 128.073 188.750, 128.457 202.500 C 128.905 218.552, 128.751 232.511, 128.025 241.500 C 126.348 262.271, 126.273 260.217, 129.068 270 C 129.775 272.475, 130.274 274.837, 130.177 275.250 C 130.079 275.662, 135.287 275.993, 141.750 275.985 C 149.706 275.974, 153.016 275.656, 152 275 C 151.175 274.467, 149.791 274.024, 148.924 274.015 C 148.058 274.007, 146.258 272.839, 144.924 271.420 L 142.500 268.840 142.223 219.344 C 142.033 185.434, 142.271 170.049, 142.980 170.487 C 143.549 170.839, 144.708 172.561, 145.556 174.313 C 146.964 177.225, 146.961 177.329, 145.520 175.520 C 144.079 173.710, 143.967 177.655, 144.221 221.165 C 144.485 266.190, 144.603 268.905, 146.384 270.872 C 148.285 272.972, 150.013 272.885, 149.985 270.691 C 149.974 269.822, 149.754 269.839, 149.172 270.755 C 148.623 271.621, 147.852 270.912, 146.688 268.471 C 145.268 265.494, 145 261.563, 145.003 243.716 C 145.007 207.236, 146.109 181.828, 147.660 182.423 C 149.270 183.041, 149.337 182.498, 147.965 179.934 C 147.395 178.870, 147.128 178, 147.370 178 C 148.125 178, 153.333 187.356, 153.333 188.712 C 153.333 189.421, 153.703 190, 154.154 190 C 155.485 190, 162.131 203.979, 161.379 205.196 C 160.983 205.836, 161.142 206.030, 161.752 205.653 C 162.381 205.264, 164.951 209.171, 168.063 215.249 C 170.951 220.887, 175.505 229.461, 178.184 234.301 C 180.863 239.142, 182.784 243.541, 182.453 244.076 C 182.122 244.612, 182.447 244.926, 183.176 244.775 C 183.908 244.623, 184.439 245.277, 184.363 246.239 C 184.288 247.196, 184.606 247.744, 185.070 247.457 C 185.535 247.169, 186.672 248.412, 187.598 250.217 C 188.524 252.023, 190.568 255.381, 192.141 257.680 C 195.408 262.456, 195.778 263.855, 193.250 261.872 C 191.666 260.630, 191.630 260.665, 192.863 262.239 C 193.613 263.195, 194.551 263.778, 194.947 263.533 C 195.344 263.288, 197.627 265.880, 200.022 269.294 C 212.978 287.763, 229.326 299.099, 247.713 302.365 C 250.697 302.894, 250.867 302.777, 250.107 300.718 C 249.656 299.498, 249.482 297.825, 249.720 297 C 250.089 295.720, 250.006 295.710, 249.153 296.934 C 248.318 298.134, 247.452 297.903, 243.851 295.520 C 238.188 291.772, 227.901 281.407, 220.194 271.684 C 213.602 263.367, 213.531 262.946, 217.918 258.292 C 220.702 255.339, 220.542 253.592, 217.250 251.009 C 215.738 249.823, 215.100 249.160, 215.833 249.536 C 216.821 250.043, 216.750 249.417, 215.557 247.110 C 214.672 245.400, 213.709 244, 213.415 244 C 213.122 244, 213.181 244.483, 213.546 245.074 C 213.922 245.683, 213.341 245.606, 212.204 244.896 C 211.042 244.169, 210.439 243.020, 210.770 242.158 C 211.183 241.080, 210.950 240.907, 209.920 241.528 C 208.719 242.252, 208.706 242.129, 209.839 240.732 C 211.013 239.285, 210.917 239.131, 209.062 239.488 C 207.899 239.712, 207.133 239.581, 207.361 239.198 C 207.589 238.814, 206.717 236.250, 205.423 233.500 C 204.130 230.750, 203.055 229.048, 203.036 229.719 C 203.015 230.425, 202.321 230.677, 201.385 230.317 C 199.105 229.443, 200.305 232.963, 204.774 240.265 C 206.715 243.436, 208.037 246.297, 207.711 246.622 C 207.385 246.948, 205.855 244.873, 204.310 242.012 C 202.764 239.151, 199.758 234.054, 197.629 230.684 C 195.500 227.315, 193.690 224.095, 193.607 223.529 C 193.524 222.963, 193.198 222.500, 192.882 222.500 C 191.830 222.500, 189 219.770, 189 218.755 C 189 218.199, 189.670 218.311, 190.507 219.006 C 191.850 220.121, 191.851 219.943, 190.514 217.379 C 189.688 215.795, 189.010 214.018, 189.006 213.430 C 188.997 211.780, 181.941 203.919, 180.994 204.504 C 180.533 204.788, 178.804 203.018, 177.152 200.570 C 175.499 198.121, 174.613 195.962, 175.183 195.772 C 175.758 195.581, 175.493 194.824, 174.587 194.072 C 173.161 192.888, 173.031 192.956, 173.559 194.609 C 174.137 196.418, 174.095 196.416, 172.582 194.559 C 170.819 192.396, 170.462 190.549, 171.989 191.493 C 172.580 191.858, 172.707 191.400, 172.305 190.352 C 171.885 189.259, 171.481 189.056, 171.229 189.812 C 171.007 190.478, 169.733 189.411, 168.396 187.442 C 167.060 185.473, 166.269 183.374, 166.638 182.777 C 167.007 182.180, 166.892 181.949, 166.383 182.263 C 165.381 182.883, 156.500 174.512, 156.500 172.949 C 156.500 172.427, 156.238 172.113, 155.917 172.250 C 155.596 172.387, 154.078 171.150, 152.542 169.500 C 151.007 167.850, 150.343 167.400, 151.066 168.500 C 151.790 169.600, 154.725 172.975, 157.588 176 C 160.450 179.025, 165.106 184.875, 167.933 189 C 180.293 207.034, 194.875 229.008, 198.458 235 C 205.391 246.593, 212.322 257.011, 212.791 256.543 C 213.042 256.291, 212.342 254.550, 211.234 252.673 C 208.953 248.806, 209.496 247.011, 212.869 247.265 C 215.163 247.438, 215.165 247.448, 213.157 249.074 C 211.327 250.556, 211.284 250.855, 212.698 252.270 C 214.298 253.870, 213.845 259, 212.103 259 C 211.631 259, 207.273 252.588, 202.419 244.750 C 184.312 215.513, 163.377 184.934, 156.377 177.500 C 155.341 176.400, 151.683 172.311, 148.247 168.414 L 142 161.328 142 120.355 C 142 86.553, 142.248 79.043, 143.419 77.441 C 144.734 75.642, 146.177 75.500, 163.169 75.500 C 185.833 75.500, 191.167 76.760, 197.822 83.687 C 200.412 86.382, 201.919 88.769, 201.583 89.644 C 201.275 90.447, 201.430 90.852, 201.928 90.545 C 203.446 89.606, 206.814 101.992, 207.498 111.031 C 208.050 118.338, 207.840 120.332, 206.033 124.916 C 204.873 127.860, 204.064 130.692, 204.236 131.209 C 204.745 132.735, 213.618 124.337, 214.986 121.034 C 215.677 119.365, 216.570 118, 216.970 118 C 217.783 118, 221.902 126.595, 243.356 173.053 C 247.560 182.157, 251 190.314, 251 191.180 C 251 192.047, 251.713 193.347, 252.584 194.070 C 255.762 196.708, 274.465 237.438, 273.337 239.264 C 272.982 239.839, 273.137 240.033, 273.683 239.696 C 274.229 239.359, 276.171 242.552, 277.998 246.791 C 279.826 251.031, 282.876 257.875, 284.776 262 C 286.675 266.125, 288.290 270.469, 288.365 271.654 C 288.439 272.839, 288.773 273.640, 289.106 273.434 C 290.466 272.595, 305.417 307.516, 304.402 309.158 C 303.930 309.923, 304.136 310.034, 305.015 309.490 C 305.985 308.891, 306.164 309.132, 305.681 310.388 C 305.319 311.332, 305.402 311.870, 305.865 311.583 C 306.328 311.297, 307.970 314.199, 309.513 318.031 C 311.056 321.864, 312.608 325, 312.962 325 C 313.317 325, 315.117 321.287, 316.963 316.750 C 318.808 312.212, 323.886 300.175, 328.247 290 C 338.423 266.254, 348.585 242.191, 364.776 203.500 C 405.156 107.004, 413.659 87.531, 421.197 74.288 C 429.798 59.177, 433.936 56, 445.009 56 C 448.929 56, 451.870 55.599, 451.566 55.107 C 451.262 54.615, 441.311 54.144, 429.452 54.059 C 409.196 53.914, 407.686 54.031, 404.517 55.989 C 402.203 57.419, 400.257 57.886, 398.322 57.474 C 395.758 56.929, 395.682 56.988, 397.488 58.120 C 400.464 59.985, 402.998 63.336, 402.502 64.750 C 402.245 65.482, 402.899 66, 404.082 66 C 405.442 66, 406.576 67.134, 407.551 69.468 C 409.642 74.473, 409.341 78.951, 406.570 84.038 C 401.002 94.259, 397.874 101.659, 395.973 109.105 C 394.732 113.968, 392.489 119.270, 390.132 122.917 C 388.027 126.174, 385.744 131.012, 385.057 133.669 C 383.095 141.262, 382.016 143.636, 379.420 146.076 C 378.089 147.326, 377 148.804, 377 149.360 C 377 149.916, 376.137 151.300, 375.082 152.436 C 373.144 154.522, 369 165.533, 369 168.597 C 369 171.175, 361.410 188.318, 357.659 194.210 C 355.807 197.120, 353.972 201.233, 353.582 203.351 C 353.191 205.469, 352.265 208.619, 351.523 210.351 C 350.782 212.083, 349.604 216.200, 348.905 219.500 C 348.207 222.800, 346.593 226.772, 345.318 228.327 C 344.041 229.883, 343 232.497, 343 234.142 C 343 237.817, 341.397 241, 339.546 241 C 338.105 241, 334 235.140, 334 233.081 C 334 231.376, 327.782 215.885, 327.293 216.373 C 327.068 216.599, 327.983 219.420, 329.327 222.642 C 330.671 225.864, 332.072 229.914, 332.441 231.642 C 332.810 233.370, 334.361 236.755, 335.888 239.163 C 338.406 243.133, 338.556 243.865, 337.493 247.020 C 336.079 251.221, 334.956 250.999, 333.106 246.152 C 329.906 237.765, 317.288 208.446, 303.991 178.500 C 296.176 160.900, 288.642 143.725, 287.248 140.333 L 284.713 134.166 296.507 112.333 C 302.994 100.325, 310.006 87.470, 312.091 83.766 C 315.377 77.926, 315.670 76.914, 314.293 76.144 C 313.001 75.421, 312.805 74.019, 313.239 68.616 C 313.567 64.520, 313.373 61.731, 312.731 61.334 C 312.081 60.932, 311.986 61.218, 312.478 62.095 C 312.911 62.868, 311.833 61.985, 310.082 60.133 C 308.332 58.282, 306.644 57.023, 306.331 57.336 C 306.018 57.649, 306.490 58.633, 307.381 59.524 C 309.098 61.241, 309.666 65.530, 308.044 64.527 C 307.518 64.202, 307.328 63.310, 307.621 62.545 C 307.917 61.774, 307.257 60.673, 306.143 60.077 C 303.007 58.398, 302.546 58.806, 305.139 60.967 C 307.616 63.030, 307.074 63.645, 304.156 62.083 C 303.157 61.549, 299.330 61.508, 294.971 61.985 L 287.500 62.804 294.500 62.752 C 298.350 62.724, 302.471 63.011, 303.658 63.389 C 306.880 64.415, 307.488 67.123, 304.930 69.053 C 303.065 70.460, 302.930 71.001, 303.965 72.935 C 304.812 74.516, 304.874 75.969, 304.177 77.841 C 303.633 79.303, 302.853 81.400, 302.444 82.500 C 302.034 83.600, 301.556 85.216, 301.380 86.090 C 301.205 86.965, 299.698 90.273, 298.031 93.442 C 296.364 96.610, 294.998 99.945, 294.995 100.852 C 294.987 103.388, 290.552 110.134, 287.992 111.504 C 284.881 113.169, 282.218 110.780, 278.489 102.977 C 274.977 95.629, 274.025 95.749, 277.297 103.126 C 278.607 106.082, 280.462 110.633, 281.419 113.240 C 282.375 115.846, 283.530 118.209, 283.985 118.491 C 285.023 119.132, 284.079 123, 282.883 123 C 282.398 123, 282 123.765, 282 124.700 C 282 127.894, 280.234 124.586, 272.013 106 C 254.181 65.681, 243.757 50.476, 225.770 38.544 C 222.619 36.454, 220.264 34.382, 220.537 33.941 C 220.809 33.499, 220.506 32.813, 219.862 32.415 C 219.131 31.963, 218.959 32.124, 219.405 32.845 C 220.403 34.461, 220.413 34.464, 209.922 29.907 C 196.022 23.869, 183.184 20.991, 165.500 19.949 C 157.250 19.463, 148.925 19.147, 147 19.247 C 145.075 19.346, 138.343 19.572, 132.040 19.748 M 122 31.942 C 103.820 33.837, 96.271 35.316, 83.798 39.425 C 68.897 44.333, 67.823 44.753, 56.228 50.196 C 38.270 58.625, 25.466 70.208, 18.480 84.344 C 14.852 91.684, 14.840 91.751, 14.768 105.256 C 14.704 117.411, 14.926 119.246, 16.929 123.087 C 19.608 128.228, 24.233 133.743, 29 137.482 L 32.500 140.227 29.246 137.124 C 27.457 135.418, 26.107 133.475, 26.246 132.806 C 26.386 132.138, 26.050 131.564, 25.500 131.530 C 23.924 131.434, 22 129.979, 22 128.882 C 22 128.332, 22.497 128.189, 23.104 128.564 C 23.711 128.939, 23.514 128.178, 22.665 126.873 C 17.610 119.094, 18.332 96.785, 23.982 86.185 C 28.019 78.611, 35.456 69.682, 40.500 66.354 C 42.700 64.903, 45.400 62.932, 46.500 61.976 C 51.283 57.815, 69.394 49.576, 85.775 44.109 C 95.524 40.855, 104.625 37.986, 106 37.733 C 108.302 37.309, 108.266 37.262, 105.544 37.136 C 102.539 36.998, 88.383 41.277, 77.500 45.615 C 74.200 46.930, 70.887 48.004, 70.138 48.003 C 69.389 48.001, 65.860 49.575, 62.296 51.500 C 58.732 53.425, 55.249 55, 54.557 55 C 53.864 55, 51.543 56.353, 49.399 58.007 C 47.254 59.660, 43.203 62.557, 40.395 64.444 C 34.276 68.558, 28.747 75.031, 23.266 84.500 C 19.266 91.411, 18.607 94.170, 17.651 108 C 17.408 111.513, 19.129 121.977, 20.488 125.250 C 21.738 128.263, 20.136 127.158, 18.313 123.750 C 16.893 121.095, 16.581 117.927, 16.609 106.451 L 16.642 92.401 20.571 85.116 C 22.732 81.109, 26.750 75.172, 29.500 71.922 C 34.468 66.052, 49.263 54.610, 53.359 53.470 C 56.262 52.662, 60.179 50.833, 62 49.434 C 62.825 48.801, 64.400 48.024, 65.500 47.708 C 66.600 47.392, 74.025 44.811, 82 41.973 C 96.863 36.682, 99.795 36.061, 120.500 33.821 C 133.703 32.393, 139.402 32.305, 158 33.243 C 166.076 33.650, 168.377 33.582, 164.500 33.051 C 154.900 31.736, 130.164 31.090, 122 31.942 M 118.500 35.595 L 108.500 36.893 117.500 36.324 C 122.450 36.010, 131.450 35.432, 137.500 35.039 L 148.500 34.325 138.500 34.311 C 133 34.303, 124 34.881, 118.500 35.595 M 171.083 34.360 C 171.313 34.558, 174.425 34.965, 178 35.265 C 181.900 35.592, 183.500 35.488, 182 35.005 C 179.531 34.209, 170.276 33.663, 171.083 34.360 M 150.762 35.707 C 152.006 35.946, 153.806 35.937, 154.762 35.687 C 155.718 35.437, 154.700 35.241, 152.500 35.252 C 150.300 35.263, 149.518 35.468, 150.762 35.707 M 162.287 36.740 C 165.469 36.939, 170.419 36.937, 173.287 36.736 C 176.154 36.535, 173.550 36.372, 167.500 36.374 C 161.450 36.376, 159.104 36.541, 162.287 36.740 M 193 38.593 C 200.456 40.975, 202.811 41.478, 201.809 40.476 C 201.183 39.849, 187.357 35.957, 186.263 36.099 C 185.843 36.154, 188.875 37.276, 193 38.593 M 233.452 42.365 C 240.574 49.059, 243 51.123, 243 50.489 C 243 49.209, 239.264 45.070, 238.656 45.677 C 238.321 46.012, 237.763 45.547, 237.417 44.643 C 237.070 43.739, 236.301 43, 235.707 43 C 235.114 43, 233.678 42.212, 232.516 41.250 C 231.354 40.288, 231.775 40.789, 233.452 42.365 M 195.813 41.683 C 196.534 41.972, 197.397 41.936, 197.729 41.604 C 198.061 41.272, 197.471 41.036, 196.417 41.079 C 195.252 41.127, 195.015 41.364, 195.813 41.683 M 204 42 C 204.825 42.533, 206.625 42.945, 208 42.914 C 210.290 42.864, 210.332 42.787, 208.500 42 C 207.400 41.527, 205.600 41.116, 204.500 41.086 C 202.849 41.040, 202.762 41.200, 204 42 M 202.813 43.683 C 203.534 43.972, 204.397 43.936, 204.729 43.604 C 205.061 43.272, 204.471 43.036, 203.417 43.079 C 202.252 43.127, 202.015 43.364, 202.813 43.683 M 215.879 45.619 C 218.838 46.970, 221.463 47.870, 221.713 47.621 C 222.272 47.061, 213.175 42.969, 211.623 43.082 C 211.005 43.127, 212.921 44.269, 215.879 45.619 M 206.750 44.662 C 207.438 44.940, 208.563 44.940, 209.250 44.662 C 209.938 44.385, 209.375 44.158, 208 44.158 C 206.625 44.158, 206.063 44.385, 206.750 44.662 M 246.939 55.105 C 248.593 57.638, 250.646 60.291, 251.500 61 C 253.352 62.537, 264 80.412, 264 81.984 C 264 83.467, 268.043 91.354, 269.178 92.086 C 269.678 92.408, 271.368 96.233, 272.932 100.586 C 276.310 109.984, 280.247 120.350, 280.636 120.874 C 280.789 121.079, 281.677 120.954, 282.610 120.596 C 284.176 119.995, 284.180 119.850, 282.671 118.722 C 281.771 118.050, 280.174 115.025, 279.121 112 C 278.068 108.975, 275.966 103.575, 274.449 100 C 272.932 96.425, 271.685 92.957, 271.679 92.294 C 271.672 91.631, 271.314 91.306, 270.884 91.572 C 270.453 91.838, 269.628 91.173, 269.050 90.094 C 267.730 87.627, 267.712 86.704, 269 87.500 C 269.550 87.840, 270 87.837, 270 87.494 C 270 86.185, 265.706 76.961, 265.290 77.377 C 265.049 77.617, 265.561 79.184, 266.426 80.857 C 268.083 84.062, 268.617 88.103, 267.165 86.450 C 266.706 85.927, 265.520 83.250, 264.528 80.500 C 263.537 77.750, 262.167 74.825, 261.484 74 C 259.228 71.277, 256.908 65.959, 257.533 64.946 C 257.872 64.398, 257.778 64.074, 257.324 64.225 C 256.871 64.376, 256.414 64.139, 256.308 63.699 C 256.045 62.594, 250.162 55.961, 249.490 56.009 C 249.190 56.030, 247.817 54.799, 246.438 53.274 C 244.314 50.922, 244.390 51.201, 246.939 55.105 M 161.500 55 C 160.129 55.589, 161.797 55.882, 166.809 55.930 C 171.444 55.974, 173.892 55.634, 173.500 55 C 172.755 53.795, 164.304 53.795, 161.500 55 M 360.710 56 C 360.227 57.847, 359.346 58, 349.216 58 C 336.936 58, 332.515 59.254, 329.036 63.722 C 324.768 69.203, 313.335 87.588, 311.451 92 C 310.394 94.475, 308.467 98.075, 307.169 100 C 302.957 106.246, 288.116 134.810, 288.046 136.805 C 288.021 137.523, 289.575 141.079, 291.500 144.706 C 293.425 148.333, 294.986 150.446, 294.969 149.401 C 294.952 148.355, 293.829 145.700, 292.474 143.500 C 291.119 141.300, 290.008 138.939, 290.005 138.253 C 290.002 137.567, 291.350 134.148, 293 130.656 C 294.650 127.164, 296 123.848, 296 123.288 C 296 122.728, 296.878 121.154, 297.950 119.790 C 299.023 118.426, 301.164 114.876, 302.708 111.900 C 304.252 108.924, 306.434 105.142, 307.557 103.495 C 308.680 101.848, 311.249 97.092, 313.267 92.926 C 315.285 88.760, 317.962 84.075, 319.218 82.515 C 320.473 80.954, 323.313 76.500, 325.528 72.617 C 328.180 67.968, 331.026 64.521, 333.860 62.528 C 337.968 59.638, 338.696 59.486, 349.832 59.186 C 359.174 58.935, 361.749 58.548, 362.750 57.245 C 364.380 55.123, 364.334 54, 362.617 54 C 361.856 54, 360.998 54.900, 360.710 56 M 463.823 55.750 C 463.210 57.921, 462.769 58, 451.344 58.004 C 437.795 58.008, 435.763 58.774, 429.763 66.140 C 423.320 74.048, 408.830 104.511, 400.813 127 C 399.735 130.025, 397.269 135.599, 395.334 139.386 C 393.398 143.173, 389.201 152.623, 386.006 160.386 C 361.264 220.510, 347.953 252.236, 346.925 253.539 C 346.474 254.111, 344.772 258.161, 343.142 262.539 C 340.324 270.108, 337.993 275.573, 332.282 288 C 330.892 291.025, 328.720 296.200, 327.456 299.500 C 326.192 302.800, 324.145 307.750, 322.907 310.500 C 321.669 313.250, 319.881 318.425, 318.932 322 L 317.208 328.500 313.511 328.195 C 309.146 327.835, 309.539 329.520, 314.052 330.512 C 317.609 331.293, 320 329.730, 320 326.623 C 320 325.451, 321.166 321.343, 322.591 317.496 C 324.015 313.648, 325.542 309.375, 325.982 308 C 326.977 304.896, 329.801 298.406, 334.317 288.843 C 336.224 284.804, 339.686 276.775, 342.010 271 C 344.334 265.225, 347.491 257.800, 349.025 254.500 C 350.559 251.200, 353.032 245.350, 354.520 241.500 C 358.742 230.579, 364.014 218.155, 367.658 210.541 C 369.489 206.713, 371.274 201.988, 371.624 200.041 C 371.974 198.093, 372.643 196.015, 373.111 195.421 C 373.578 194.828, 375.130 191.228, 376.559 187.421 C 377.987 183.615, 380.417 178.250, 381.957 175.500 C 383.497 172.750, 385.785 167.354, 387.041 163.508 C 389.999 154.450, 393.455 146.622, 396.977 141 C 398.528 138.525, 401.475 131.550, 403.526 125.500 C 405.577 119.450, 409.047 110.675, 411.238 106 C 427.428 71.447, 431.660 64.515, 438.731 60.964 C 442.393 59.126, 444.372 58.881, 453.423 59.145 C 459.176 59.313, 464.171 59.163, 464.522 58.811 C 464.874 58.459, 465.004 57.121, 464.810 55.836 L 464.459 53.500 463.823 55.750 M 466.353 54.762 C 466.717 55.350, 466.579 56.977, 466.047 58.377 L 465.079 60.921 455.186 60.318 C 445.685 59.740, 445.089 59.827, 440.146 62.517 C 437.316 64.057, 435 65.681, 435 66.124 C 435 66.568, 433.727 68.409, 432.171 70.215 C 428.881 74.034, 423.934 82.946, 420.356 91.500 C 418.975 94.800, 416.317 100.490, 414.450 104.145 C 409.945 112.963, 403.013 130.917, 403.006 133.785 C 403 136.113, 401.010 139.903, 397.904 143.500 C 395.735 146.012, 388.540 163.272, 387.629 168.149 C 387.254 170.157, 385.928 173.307, 384.683 175.149 C 383.438 176.992, 381.350 181.200, 380.044 184.500 C 378.737 187.800, 376.655 192.550, 375.416 195.055 C 374.177 197.561, 372.850 201.386, 372.467 203.555 C 372.084 205.725, 370.453 209.975, 368.842 213 C 364.759 220.669, 359.616 232.905, 356.093 243.332 C 354.452 248.189, 352.674 252.689, 352.143 253.332 C 350.922 254.808, 341.663 276.201, 340.001 281.387 C 339.315 283.526, 336.380 290.051, 333.478 295.887 C 330.577 301.724, 327.211 309.875, 326 314 C 324.788 318.125, 323.412 322.400, 322.940 323.500 C 322.469 324.600, 321.952 326.625, 321.792 328 C 321.622 329.451, 320.556 330.914, 319.250 331.487 C 318.012 332.030, 317 332.803, 317 333.205 C 317 335.177, 321.614 331.908, 322.384 329.391 C 322.870 327.801, 323.618 325.600, 324.048 324.500 C 324.477 323.400, 326.041 318.675, 327.523 314 C 329.004 309.325, 332.227 301.450, 334.684 296.500 C 338.627 288.556, 342.803 278.791, 349.152 262.667 C 350.198 260.009, 352.330 255.284, 353.888 252.167 C 355.447 249.050, 357.524 244.025, 358.505 241 C 361.222 232.617, 366.851 218.916, 369.186 215 C 370.333 213.075, 372.301 208.350, 373.557 204.500 C 376.711 194.837, 382.846 180.037, 384.952 177.011 C 385.914 175.630, 387.865 171.125, 389.289 167 C 393.378 155.153, 397.030 146.669, 398.974 144.500 C 401.290 141.915, 404 136.538, 404 134.528 C 404 133.663, 406.003 127.833, 408.451 121.572 C 412.355 111.586, 415.668 104.253, 426.782 81 C 428.228 77.975, 431.621 72.930, 434.322 69.788 C 440.922 62.113, 445.185 60.489, 456.454 61.355 C 463.364 61.886, 465.136 61.721, 466.428 60.429 C 468.272 58.585, 468.491 55.422, 466.845 54.405 C 466.162 53.982, 465.961 54.128, 466.353 54.762 M 365.050 57.407 C 363.691 59.946, 363.441 60, 353.081 60.009 C 343.194 60.018, 342.161 60.213, 337.340 62.978 C 331.898 66.100, 329.920 68.377, 325.594 76.500 C 324.130 79.250, 321.614 83.300, 320.005 85.500 C 318.395 87.700, 315.270 93.100, 313.061 97.500 C 307.942 107.696, 303.416 115.685, 300.597 119.500 C 298.549 122.273, 291.980 138.384, 292.015 140.550 C 292.043 142.266, 293.931 138.617, 296.595 131.698 C 298.844 125.857, 304.046 116.183, 309.874 107 C 310.747 105.625, 313.366 100.556, 315.694 95.737 C 318.022 90.917, 321.329 85.229, 323.042 83.097 C 324.755 80.966, 327.809 76.359, 329.828 72.861 C 332.900 67.540, 334.388 66.050, 338.929 63.750 C 343.738 61.314, 345.463 61, 354.024 61 C 362.324 61, 363.938 60.726, 365.448 59.058 C 366.414 57.990, 367.033 56.598, 366.822 55.965 C 366.610 55.331, 365.813 55.980, 365.050 57.407 M 249 56.646 C 249 57.185, 250.463 58.948, 252.250 60.563 L 255.500 63.500 252.500 60.005 C 250.850 58.083, 249.387 56.320, 249.250 56.088 C 249.113 55.856, 249 56.107, 249 56.646 M 228.432 59.510 C 223.153 61.828, 222.446 63.392, 224.233 68.797 L 225.789 73.500 225.266 68.342 C 224.755 63.299, 224.819 63.144, 228.122 61.403 C 229.980 60.424, 233.300 59.314, 235.500 58.936 L 239.500 58.250 235.500 58.207 C 233.300 58.183, 230.119 58.769, 228.432 59.510 M 387.655 58.750 C 387.400 59.163, 389.201 59.544, 391.658 59.597 C 394.386 59.657, 395.613 59.371, 394.812 58.863 C 393.171 57.822, 388.276 57.745, 387.655 58.750 M 381.507 59.989 C 381.157 60.555, 381.558 60.723, 382.448 60.382 C 384.180 59.717, 384.497 59, 383.059 59 C 382.541 59, 381.843 59.445, 381.507 59.989 M 158.500 60.504 C 160.639 61.244, 176.373 61.652, 174.494 60.919 C 173.397 60.491, 169.125 60.144, 165 60.149 C 160.875 60.154, 157.950 60.314, 158.500 60.504 M 387.500 61.082 C 382.556 61.679, 382.575 61.688, 389.250 61.843 C 395.839 61.996, 397.771 61.615, 394.250 60.856 C 393.288 60.649, 390.250 60.750, 387.500 61.082 M 397.497 60.995 C 397.835 61.542, 399.099 62.507, 400.306 63.140 C 402.485 64.283, 402.487 64.276, 400.595 62.146 C 398.686 59.996, 396.341 59.125, 397.497 60.995 M 190 72 C 190 73.100, 190.408 74, 190.906 74 C 191.405 74, 191.577 73.100, 191.290 72 C 191.002 70.900, 190.594 70, 190.383 70 C 190.173 70, 190 70.900, 190 72 M 151.830 77.732 C 149.155 77.944, 146.591 78.788, 145.830 79.705 C 144.776 80.975, 144.479 89.694, 144.398 121.771 L 144.297 162.234 146.746 164.867 L 149.195 167.500 147.213 164.761 C 145.372 162.219, 145.270 160.894, 145.794 146.261 C 146.104 137.593, 146.304 128.475, 146.239 126 C 145.799 109.350, 146.187 84.639, 146.917 82.717 C 147.682 80.706, 148.948 80.248, 157.042 79.048 C 166.472 77.651, 167.410 77.728, 185.500 81.366 C 186.600 81.587, 185.250 81.872, 182.500 82 C 179.750 82.128, 178.347 82.449, 179.382 82.715 C 182.499 83.514, 192.538 81.954, 190.910 80.923 C 190.135 80.432, 187.834 80.024, 185.799 80.015 C 183.763 80.007, 179.506 79.325, 176.339 78.500 C 170.965 77.100, 162.938 76.849, 151.830 77.732 M 103.500 80.969 L 109.500 81.603 104.500 82.170 C 101.067 82.559, 101.694 82.632, 106.500 82.403 C 110.350 82.220, 114.175 82.497, 115 83.020 C 116.333 83.864, 116.333 83.974, 115 84.015 C 113.927 84.048, 114.069 84.397, 115.500 85.242 C 118.954 87.281, 120.357 87.056, 118.336 84.786 C 115.435 81.528, 110.576 79.986, 103.782 80.168 L 97.500 80.336 103.500 80.969 M 154 81.293 C 151.525 81.872, 149.169 82.830, 148.765 83.423 C 148.361 84.015, 148.112 89.225, 148.211 95 L 148.391 105.500 148.946 95.001 L 149.500 84.502 153.500 83.099 C 155.700 82.328, 161.325 81.386, 166 81.007 L 174.500 80.317 166.500 80.279 C 162.100 80.257, 156.475 80.714, 154 81.293 M 193.895 82.914 C 195.018 83.625, 194.921 83.902, 193.395 84.334 C 191.658 84.825, 191.667 84.857, 193.500 84.710 C 194.600 84.622, 196.175 84.954, 197 85.447 C 197.916 85.994, 197.758 85.498, 196.595 84.172 C 195.547 82.977, 194.197 82.007, 193.595 82.015 C 192.993 82.024, 193.128 82.428, 193.895 82.914 M 233.031 88.500 C 233.031 89.050, 233.467 90.175, 234 91 C 234.533 91.825, 234.969 92.050, 234.969 91.500 C 234.969 90.950, 234.533 89.825, 234 89 C 233.467 88.175, 233.031 87.950, 233.031 88.500 M 237.564 97.293 C 237.940 98.279, 238.499 98.834, 238.807 98.526 C 239.115 98.219, 238.808 97.412, 238.124 96.733 C 237.136 95.753, 237.022 95.868, 237.564 97.293 M 239.031 100.500 C 239.031 101.050, 239.467 102.175, 240 103 C 240.533 103.825, 240.969 104.050, 240.969 103.500 C 240.969 102.950, 240.533 101.825, 240 101 C 239.467 100.175, 239.031 99.950, 239.031 100.500 M 107.252 110.252 C 106.655 111.488, 104.556 116.001, 102.587 120.281 C 100.238 125.385, 98.232 128.373, 96.753 128.968 C 94.547 129.854, 94.555 129.875, 97.123 129.937 C 99.413 129.992, 100.185 129.081, 103.213 122.750 C 107.679 113.409, 109.385 109.052, 108.803 108.469 C 108.546 108.213, 107.848 109.015, 107.252 110.252 M 147.272 112 C 147.272 114.475, 147.467 115.487, 147.706 114.250 C 147.944 113.013, 147.944 110.987, 147.706 109.750 C 147.467 108.513, 147.272 109.525, 147.272 112 M 102.655 111.829 C 101.745 112.835, 101 114.725, 101 116.029 C 101 118.974, 102.345 117.645, 103.811 113.250 C 105.063 109.499, 104.921 109.325, 102.655 111.829 M 286 115 C 285.411 116.100, 285.155 117, 285.430 117 C 285.705 117, 286.411 116.100, 287 115 C 287.589 113.900, 287.845 113, 287.570 113 C 287.295 113, 286.589 113.900, 286 115 M 248.086 120 C 248.055 120.825, 248.467 122.175, 249 123 C 250.181 124.828, 250.181 123.249, 249 120.500 C 248.433 119.181, 248.122 119.011, 248.086 120 M 97.250 124.040 C 94.876 126.969, 94.495 128, 95.784 128 C 96.647 128, 100.406 122.043, 99.847 121.563 C 99.656 121.398, 98.487 122.513, 97.250 124.040 M 215.621 125.455 C 212.846 129.691, 209.751 131.994, 201.500 135.963 C 193.020 140.042, 186.204 142, 180.486 142 C 178.566 142, 177 142.507, 177 143.127 C 177 143.890, 178.537 144.060, 181.750 143.653 C 191.927 142.365, 195.815 141.215, 204.390 136.953 C 211.068 133.634, 213.897 131.601, 215.762 128.784 C 217.127 126.721, 218.634 125.274, 219.111 125.568 C 219.587 125.863, 219.709 125.406, 219.382 124.552 C 218.542 122.363, 217.480 122.618, 215.621 125.455 M 217.313 130.656 C 215.779 132.667, 212.494 135.272, 210.012 136.444 C 207.530 137.616, 204.375 139.220, 203 140.008 C 195.933 144.058, 178.657 146.620, 175.588 144.073 C 174.352 143.047, 174.007 143.443, 173.423 146.559 C 172.833 149.704, 172.576 149.993, 171.724 148.471 C 171.033 147.236, 171.078 146.105, 171.869 144.839 C 172.861 143.250, 172.698 143, 170.675 143 C 169.387 143, 168.046 143.287, 167.695 143.639 C 166.885 144.448, 171.914 150.500, 173.396 150.500 C 174.003 150.500, 174.500 151.005, 174.500 151.623 C 174.500 152.241, 175.773 154.266, 177.329 156.123 C 178.885 157.980, 181.302 161.433, 182.701 163.795 C 184.099 166.158, 185.469 167.864, 185.745 167.588 C 186.022 167.312, 185.287 165.457, 184.112 163.466 C 182.938 161.475, 182.241 159.420, 182.563 158.898 C 182.885 158.377, 182.553 158.074, 181.824 158.225 C 181.091 158.377, 180.649 157.830, 180.833 157 C 181.017 156.175, 180.833 155.834, 180.425 156.241 C 179.521 157.146, 176.830 155.084, 177.500 154 C 177.763 153.575, 177.308 152.671, 176.489 151.991 C 174.534 150.368, 174.586 147.373, 176.582 146.607 C 177.452 146.273, 181.389 145.965, 185.332 145.922 C 189.381 145.879, 194.458 145.117, 197 144.172 C 205.077 141.171, 216.020 134.781, 218.109 131.847 C 219.233 130.268, 220.563 129.230, 221.065 129.540 C 221.567 129.850, 221.709 129.406, 221.382 128.552 C 220.574 126.447, 220.492 126.489, 217.313 130.656 M 253.202 131.478 C 254.398 133.941, 255.549 135.785, 255.758 135.575 C 256.211 135.123, 252.170 127, 251.493 127 C 251.236 127, 252.005 129.015, 253.202 131.478 M 147.917 131.250 C 147.408 138.926, 147.248 148.086, 147.628 147.705 C 148.287 147.046, 149.129 130, 148.503 130 C 148.226 130, 147.963 130.563, 147.917 131.250 M 87.790 135.399 C 81.718 141.759, 67.600 148.423, 56.572 150.135 C 44.673 151.981, 34.126 149.713, 21.314 142.552 C 18.311 140.874, 17.227 140.570, 18.131 141.659 C 18.884 142.567, 21.040 143.953, 22.921 144.740 C 25.616 145.866, 26.041 146.378, 24.921 147.151 C 23.861 147.882, 24.043 147.979, 25.635 147.535 C 28.075 146.853, 33.618 149, 32.001 150 C 31.420 150.359, 32.419 150.722, 34.222 150.808 C 36.025 150.893, 42.195 151.241, 47.934 151.581 C 60.971 152.353, 67.730 150.596, 80.500 143.116 C 87.504 139.014, 89.831 137.184, 91.128 134.761 C 92.518 132.164, 90.513 132.547, 87.790 135.399 M 93.116 135.063 C 92.963 137.123, 88.484 141.044, 83.500 143.480 C 81.300 144.555, 78.418 146.244, 77.096 147.232 C 73.434 149.971, 58.893 154.097, 54.919 153.526 L 51.500 153.035 55.143 154.091 C 60.212 155.562, 70.918 152.288, 82.161 145.829 C 91.903 140.233, 94.388 137.972, 93.704 135.324 C 93.356 133.980, 93.201 133.912, 93.116 135.063 M 281.200 146.200 C 279.866 147.534, 279.561 151, 280.778 151 C 282.125 151, 285.088 146.951, 284.471 145.953 C 283.681 144.675, 282.647 144.753, 281.200 146.200 M 168.411 150.077 C 171.503 153.751, 171.667 155, 169.059 155 C 166.126 155, 165.662 156.707, 167.765 159.757 C 170.350 163.506, 175.408 172.860, 183.894 189.586 C 190.563 202.733, 195.386 210.789, 193.420 205.500 C 193.011 204.400, 192.477 201.813, 192.233 199.750 C 191.738 195.558, 192.678 195.088, 196.522 197.606 C 198.936 199.188, 198.923 199.106, 195.714 192.356 C 190.074 180.494, 185.892 172.730, 181.247 165.500 C 175.979 157.300, 167.863 147.009, 166.661 147.004 C 166.200 147.002, 166.987 148.385, 168.411 150.077 M 261.031 148.500 C 261.031 149.050, 261.467 150.175, 262 151 C 262.533 151.825, 262.969 152.050, 262.969 151.500 C 262.969 150.950, 262.533 149.825, 262 149 C 261.467 148.175, 261.031 147.950, 261.031 148.500 M 147.594 155.656 C 147.219 159.317, 147.270 162.662, 147.706 163.089 C 148.143 163.517, 148.628 160.521, 148.784 156.433 C 148.940 152.345, 148.889 149, 148.672 149 C 148.454 149, 147.969 151.995, 147.594 155.656 M 297.086 150.559 C 297.039 151.691, 297.708 153.491, 298.574 154.559 C 299.440 155.626, 299.842 155.902, 299.467 155.172 C 299.092 154.441, 298.422 152.641, 297.979 151.172 C 297.331 149.028, 297.155 148.907, 297.086 150.559 M 295.004 152.309 C 295.002 152.753, 297.025 157.067, 299.500 161.895 C 301.975 166.722, 304 171.027, 304 171.461 C 304 171.895, 305.212 174.950, 306.693 178.250 C 308.852 183.061, 309.532 183.879, 310.123 182.376 C 310.528 181.344, 310.859 179.825, 310.859 179 C 310.859 178.024, 310.599 178.164, 310.114 179.400 C 309.532 180.884, 308.675 179.597, 306.202 173.525 C 304.461 169.249, 303.322 165.288, 303.672 164.721 C 304.043 164.121, 303.819 163.994, 303.134 164.417 C 302.384 164.881, 301.418 163.851, 300.468 161.579 C 298.745 157.455, 295.009 151.117, 295.004 152.309 M 42.750 153.706 C 43.987 153.944, 46.013 153.944, 47.250 153.706 C 48.487 153.467, 47.475 153.272, 45 153.272 C 42.525 153.272, 41.513 153.467, 42.750 153.706 M 275.947 158.250 C 275.234 160.037, 273.774 162.772, 272.703 164.327 C 271.061 166.709, 270.928 167.652, 271.858 170.327 C 272.726 172.821, 272.861 172.935, 272.489 170.858 C 272.160 169.021, 273.081 166.447, 275.508 162.417 C 279.121 156.416, 279.620 155, 278.121 155 C 277.638 155, 276.659 156.463, 275.947 158.250 M 165.036 159.750 C 165.056 160.162, 166.195 161.850, 167.569 163.500 C 169.120 165.364, 169.798 165.771, 169.359 164.576 C 168.610 162.537, 164.975 158.478, 165.036 159.750 M 187.341 167.250 C 189.214 172.222, 189.228 172.576, 187.467 170.500 C 185.204 167.832, 185.785 169.233, 190.165 177 C 192.181 180.575, 199.103 194.525, 205.547 208 C 211.990 221.475, 217.991 234.012, 218.881 235.860 C 219.772 237.708, 221.076 239.449, 221.780 239.728 C 222.484 240.008, 222.811 241.020, 222.507 241.977 C 222.203 242.934, 222.609 244.260, 223.408 244.923 C 224.579 245.896, 225.068 245.742, 225.930 244.130 C 227.346 241.485, 227.307 241.314, 225.167 240.754 C 224.158 240.490, 223.312 239.650, 223.286 238.887 C 223.223 237.039, 219.050 228.136, 219.022 229.790 C 219.010 230.499, 219.909 232.862, 221.020 235.040 C 222.132 237.218, 222.637 239, 222.143 239 C 221.215 239, 217 229.991, 217 228.006 C 217 227.388, 217.445 227.157, 217.989 227.493 C 218.566 227.850, 218.716 227.424, 218.349 226.468 C 217.963 225.460, 217.471 225.237, 217.070 225.888 C 216.711 226.468, 214.523 223.124, 212.209 218.457 C 207.755 209.477, 207.411 208.518, 208.989 209.493 C 209.580 209.858, 209.707 209.400, 209.305 208.352 C 208.888 207.266, 208.480 207.059, 208.231 207.807 C 207.703 209.392, 206 208.305, 206 206.382 C 206 205.557, 206.420 205.141, 206.933 205.458 C 207.446 205.775, 206.697 203.326, 205.268 200.015 C 203.840 196.705, 202.509 194.158, 202.310 194.356 C 202.112 194.555, 202.872 196.869, 204 199.500 C 205.128 202.131, 205.831 204.503, 205.563 204.771 C 205.294 205.039, 204.547 203.963, 203.901 202.379 C 200.802 194.775, 194.568 182.030, 191.934 177.912 C 188.850 173.090, 188.279 171.436, 190.083 172.551 C 190.678 172.919, 190.396 171.708, 189.455 169.860 C 187.525 166.065, 186.347 164.612, 187.341 167.250 M 174 174.941 C 174 175.459, 174.445 176.157, 174.989 176.493 C 175.555 176.843, 175.723 176.442, 175.382 175.552 C 174.717 173.820, 174 173.503, 174 174.941 M 276.564 181.293 C 276.940 182.279, 277.499 182.834, 277.807 182.526 C 278.115 182.219, 277.808 181.412, 277.124 180.733 C 276.136 179.753, 276.022 179.868, 276.564 181.293 M 148.661 184.441 C 148.297 185.389, 148.093 191.189, 148.206 197.332 C 148.404 208.089, 148.423 208.181, 148.743 199.841 C 148.975 193.790, 149.516 190.817, 150.538 189.969 C 152.355 188.461, 152.390 186.915, 150.661 184.551 C 149.411 182.841, 149.278 182.834, 148.661 184.441 M 312.079 184.816 C 312.036 185.539, 312.486 187.040, 313.081 188.151 C 313.676 189.262, 313.907 190.426, 313.596 190.737 C 313.285 191.048, 312.366 189.772, 311.554 187.901 C 310.743 186.031, 310.061 185.075, 310.039 185.779 C 309.988 187.442, 315.657 198.670, 316.952 199.470 C 317.500 199.809, 318.589 202.204, 319.373 204.793 C 320.157 207.382, 322.179 212.546, 323.866 216.268 C 325.553 219.991, 327.434 224.941, 328.046 227.268 C 329.541 232.946, 336.220 246.811, 336.731 245.295 C 336.954 244.632, 336.017 242.157, 334.648 239.795 C 333.279 237.433, 331.405 233.025, 330.484 230 C 329.563 226.975, 328.227 223.150, 327.515 221.500 C 323.594 212.409, 322.702 210.193, 321.307 206.082 C 320.464 203.602, 318.753 200.206, 317.504 198.536 C 314.793 194.913, 313.162 190.364, 314.975 191.485 C 315.755 191.967, 315.667 191.234, 314.720 189.360 C 313.925 187.787, 313.023 185.825, 312.716 185 C 312.330 183.963, 312.134 183.906, 312.079 184.816 M 280 189.305 C 280 190.485, 284.884 201, 285.432 201 C 285.731 201, 284.840 198.435, 283.454 195.300 C 280.994 189.738, 280 188.012, 280 189.305 M 158 200.711 C 158 201.285, 158.787 202.373, 159.750 203.128 C 161.369 204.397, 161.390 204.350, 160.033 202.500 C 159.226 201.400, 158.439 200.313, 158.283 200.083 C 158.127 199.854, 158 200.137, 158 200.711 M 188.044 201.290 C 187.973 202.558, 191.873 209.804, 193.002 210.501 C 193.569 210.852, 193.731 211.627, 193.362 212.224 C 192.949 212.892, 193.159 213.019, 193.911 212.555 C 194.848 211.976, 194.795 211.419, 193.684 210.151 C 192.889 209.243, 191.304 206.700, 190.163 204.500 C 189.022 202.300, 188.069 200.855, 188.044 201.290 M 181 205.723 C 181 206.290, 181.736 207.366, 182.637 208.113 C 183.537 208.860, 185.123 211.454, 186.162 213.877 C 187.200 216.301, 188.315 218.018, 188.640 217.694 C 189.484 216.849, 185.316 208.596, 182.975 206.477 C 181.889 205.494, 181 205.155, 181 205.723 M 147.442 238 C 147.442 254.225, 147.580 260.863, 147.748 252.750 C 147.916 244.637, 147.916 231.362, 147.748 223.250 C 147.580 215.137, 147.442 221.775, 147.442 238 M 294.500 223 C 294.840 223.550, 295.316 224, 295.559 224 C 295.802 224, 296 223.550, 296 223 C 296 222.450, 295.523 222, 294.941 222 C 294.359 222, 294.160 222.450, 294.500 223 M 297 227.642 C 297 228.179, 297.700 229.491, 298.555 230.559 C 300.022 232.389, 300.042 232.357, 298.920 230 C 297.462 226.939, 297 226.372, 297 227.642 M 205 229.941 C 205 230.459, 205.445 231.157, 205.989 231.493 C 206.555 231.843, 206.723 231.442, 206.382 230.552 C 205.717 228.820, 205 228.503, 205 229.941 M 207 233.750 C 207 234.227, 207.653 235.491, 208.450 236.559 C 209.849 238.432, 209.880 238.420, 209.330 236.234 C 208.761 233.977, 207 232.099, 207 233.750 M 239.183 235.217 C 238.532 235.868, 238 236.878, 238 237.463 C 238 238.471, 235.465 240.156, 231.860 241.544 C 230.958 241.892, 229.419 243.664, 228.439 245.483 L 226.658 248.791 229.829 253.733 C 231.573 256.451, 233 259.164, 233 259.762 C 233 260.360, 236.428 264.370, 240.619 268.674 C 244.809 272.978, 247.738 275.784, 247.127 274.908 C 246.517 274.032, 246.351 272.948, 246.759 272.498 C 247.166 272.048, 247.006 271.960, 246.403 272.304 C 245.022 273.091, 239.701 267.660, 240.736 266.520 C 241.156 266.058, 240.987 265.973, 240.359 266.331 C 239.732 266.690, 238.495 265.878, 237.609 264.527 C 235.533 261.358, 235.560 260.394, 237.675 262.128 C 239.132 263.322, 239.117 263.143, 237.560 260.750 C 235.502 257.588, 234.824 257.240, 235.613 259.750 C 236.083 261.244, 235.932 261.216, 234.582 259.559 C 232.834 257.414, 232.458 255.547, 233.960 256.475 C 234.518 256.820, 234.466 255.765, 233.835 253.956 C 233.046 251.694, 233.057 250.170, 233.875 248.375 C 234.494 247.017, 235 244.760, 235 243.359 C 235 241.709, 235.661 240.640, 236.878 240.322 C 237.911 240.052, 239.278 238.685, 239.916 237.286 C 241.238 234.383, 240.919 233.481, 239.183 235.217 M 301.702 239.667 C 301.984 240.400, 302.343 241, 302.500 241 C 302.657 241, 303.016 240.400, 303.298 239.667 C 303.579 238.933, 303.220 238.333, 302.500 238.333 C 301.780 238.333, 301.421 238.933, 301.702 239.667 M 304.079 242.583 C 304.127 243.748, 304.364 243.985, 304.683 243.188 C 304.972 242.466, 304.936 241.603, 304.604 241.271 C 304.272 240.939, 304.036 241.529, 304.079 242.583 M 231.921 244.050 C 229.273 248.180, 229.158 249.443, 231.100 253.036 L 232.972 256.500 232.359 252.255 C 231.969 249.553, 232.186 247.481, 232.956 246.553 C 233.621 245.752, 234.014 244.310, 233.829 243.348 C 233.544 241.869, 233.250 241.977, 231.921 244.050 M 310.037 256.488 C 309.985 257.872, 317.312 275.021, 317.763 274.570 C 317.966 274.367, 316.319 269.993, 314.103 264.851 C 311.888 259.708, 310.058 255.945, 310.037 256.488 M 217.477 263.072 C 217.091 264.287, 217.401 265.837, 218.227 266.822 C 229.170 279.875, 238.402 289.870, 239.111 289.431 C 239.600 289.129, 240 289.487, 240 290.225 C 240 290.964, 241.463 292.372, 243.250 293.353 L 246.500 295.138 243.869 292.819 C 241.507 290.736, 238 285.134, 238 283.443 C 238 283.082, 238.698 283.054, 239.552 283.382 C 240.442 283.723, 240.843 283.555, 240.493 282.989 C 239.615 281.568, 240.948 281.747, 248 284 C 257.418 287.009, 264.875 286.373, 266.387 282.433 C 267.408 279.772, 266.131 279.368, 264.420 281.810 C 263.168 283.598, 261.932 283.992, 257.693 283.956 C 252.488 283.912, 243.723 282.056, 242.382 280.715 C 241.286 279.620, 238.799 279.865, 239.500 281 C 239.840 281.550, 239.622 282, 239.015 282 C 238.409 282, 238.039 281.438, 238.193 280.750 C 238.512 279.330, 228.276 269.391, 227.398 270.269 C 227.084 270.583, 228.017 271.620, 229.473 272.574 C 231.338 273.796, 231.756 274.533, 230.889 275.069 C 229.946 275.651, 230.050 276.427, 231.332 278.385 C 232.483 280.140, 232.598 280.783, 231.700 280.439 C 230.982 280.163, 229.608 278.607, 228.648 276.981 C 226.976 274.151, 226.978 274.053, 228.701 274.673 C 230.111 275.180, 229.974 274.743, 228.064 272.647 C 226.723 271.177, 225.482 268.967, 225.304 267.737 C 225.126 266.507, 224.910 264.957, 224.824 264.294 C 224.737 263.631, 224.343 263.288, 223.947 263.533 C 223.551 263.778, 222.671 263.308, 221.991 262.489 C 220.244 260.385, 218.248 260.642, 217.477 263.072 M 219.497 264.005 C 219.122 264.611, 219.870 266.648, 221.158 268.532 C 222.446 270.416, 223.655 271.502, 223.845 270.945 C 224.034 270.388, 223.658 269.293, 223.008 268.510 C 222.359 267.728, 222.087 266.669, 222.403 266.157 C 222.719 265.645, 222.348 264.704, 221.578 264.065 C 220.567 263.226, 219.989 263.209, 219.497 264.005 M 239.250 271.619 C 241.311 274.019, 241.487 275.660, 239.750 276.280 C 237.841 276.962, 239.190 277.867, 245.335 280.026 C 251.306 282.125, 259.517 282.605, 262 281 C 263.072 280.307, 261.973 280.026, 258.151 280.015 C 251.960 279.998, 247.946 278.325, 241.855 273.226 C 239.460 271.221, 238.287 270.497, 239.250 271.619 M 167.411 278.500 C 166.828 280.823, 165.839 281.488, 163.597 281.067 C 163.100 280.974, 159.588 280.311, 155.793 279.593 C 150.484 278.589, 143.549 278.484, 125.713 279.137 C 112.964 279.604, 101.626 279.714, 100.517 279.381 C 99.021 278.932, 98.781 279.072, 99.587 279.925 C 100.850 281.260, 105.317 281.333, 132.378 280.456 C 144.996 280.047, 153.762 280.191, 156.378 280.850 C 164.263 282.835, 165.686 282.950, 167.237 281.728 C 169.179 280.200, 170.535 276, 169.086 276 C 168.510 276, 167.756 277.125, 167.411 278.500 M 170.749 279.956 C 169.460 283.238, 168.684 283.922, 165.859 284.269 L 162.500 284.680 166.128 284.840 C 168.123 284.928, 170.172 284.438, 170.682 283.750 C 172.479 281.327, 173.915 277.065, 173.103 276.564 C 172.651 276.284, 171.592 277.811, 170.749 279.956 M 318.031 276.500 C 318.031 277.050, 318.467 278.175, 319 279 C 319.533 279.825, 319.969 280.050, 319.969 279.500 C 319.969 278.950, 319.533 277.825, 319 277 C 318.467 276.175, 318.031 275.950, 318.031 276.500 M 234.386 279.158 C 234.449 280.355, 235.063 281.522, 235.750 281.751 C 237.433 282.311, 237.346 279.532, 235.636 278.113 C 234.552 277.213, 234.296 277.428, 234.386 279.158 M 203.500 281 C 202.717 282.266, 203.859 284.205, 204.979 283.513 C 205.441 283.227, 206.648 283.320, 207.660 283.719 C 209.199 284.327, 209.010 284.561, 206.500 285.155 L 203.500 285.865 206.591 285.710 C 209.897 285.544, 216.792 290.369, 216.167 292.411 C 215.983 293.010, 216.167 293.166, 216.575 292.759 C 216.982 292.351, 218.032 292.538, 218.908 293.175 C 219.784 293.811, 217.125 291.109, 213 287.171 C 205.252 279.774, 204.543 279.313, 203.500 281 M 268.259 282.218 C 268.001 285.641, 266.286 286.471, 258.204 287.084 L 250.500 287.669 258.027 287.834 C 266.188 288.014, 270 286.475, 270 283.002 C 270 280.372, 268.450 279.675, 268.259 282.218 M 114 282.584 C 105.685 283.868, 105.653 283.884, 112.500 283.306 C 116.350 282.981, 127.150 282.413, 136.500 282.043 L 153.500 281.370 138 281.320 C 129.475 281.293, 118.675 281.861, 114 282.584 M 100.250 282.689 C 101.213 282.941, 102.787 282.941, 103.750 282.689 C 104.713 282.438, 103.925 282.232, 102 282.232 C 100.075 282.232, 99.287 282.438, 100.250 282.689 M 156 283 C 157.375 283.440, 159.400 283.801, 160.500 283.801 C 162.084 283.801, 161.980 283.634, 160 283 C 158.625 282.560, 156.600 282.199, 155.500 282.199 C 153.916 282.199, 154.020 282.366, 156 283 M 233 282.177 C 233 282.481, 234.343 284.252, 235.984 286.114 C 237.625 287.977, 238.975 289.022, 238.984 288.437 C 238.993 287.852, 237.650 286.081, 236 284.500 C 234.350 282.919, 233 281.874, 233 282.177 M 244 285 C 244.825 285.533, 246.175 285.945, 247 285.914 C 247.989 285.878, 247.819 285.567, 246.500 285 C 243.751 283.819, 242.172 283.819, 244 285 M 192.301 301.015 C 188.342 304.854, 184.742 308.584, 184.301 309.303 C 183.860 310.022, 181.725 311.935, 179.555 313.555 C 177.386 315.175, 173.888 318.362, 171.782 320.637 C 169.677 322.912, 165.827 325.692, 163.227 326.816 C 160.627 327.939, 157.506 329.790, 156.292 330.929 C 155.077 332.068, 153.831 333, 153.522 333 C 153.213 333, 151.140 334.149, 148.915 335.554 C 140.964 340.573, 138.278 341.777, 129.448 344.277 C 116.358 347.983, 115.136 348.166, 97.563 349.043 L 81.500 349.846 99.500 349.458 C 113.871 349.149, 119.012 348.648, 125 346.971 C 129.125 345.817, 133.949 344.501, 135.721 344.048 C 139.402 343.106, 147.553 338.686, 157 332.508 C 160.575 330.170, 164.850 327.568, 166.500 326.727 C 168.150 325.885, 172.200 322.680, 175.500 319.604 C 191.484 304.703, 200.998 295.430, 200.999 294.750 C 201.002 293.044, 199.135 294.388, 192.301 301.015 M 221 294.378 C 221 294.585, 221.787 295.373, 222.750 296.128 C 224.336 297.371, 224.371 297.336, 223.128 295.750 C 221.821 294.084, 221 293.555, 221 294.378 M 285 297.620 C 277.268 305.111, 268.882 308.193, 254 309.015 L 242.500 309.650 253.712 309.825 C 262.938 309.969, 265.951 309.625, 270.712 307.885 C 277.496 305.406, 287 299.249, 287 297.334 C 287 295.744, 286.926 295.754, 285 297.620 M 225.333 298.363 C 225.333 299.214, 226.054 299.537, 227.251 299.224 C 228.731 298.837, 228.864 298.529, 227.835 297.877 C 225.946 296.680, 225.333 296.799, 225.333 298.363 M 230.835 299.877 C 231.570 300.343, 232.132 301.011, 232.085 301.362 C 232.038 301.713, 232.338 302.038, 232.750 302.085 C 233.162 302.132, 234.175 302.681, 235 303.305 C 235.825 303.929, 235.409 303.216, 234.076 301.720 C 232.742 300.224, 231.167 299.007, 230.576 299.015 C 229.984 299.024, 230.101 299.412, 230.835 299.877 M 276 299.979 C 274.625 300.423, 270.839 301.986, 267.587 303.452 C 262.161 305.899, 260.802 306.091, 251.087 305.785 C 245.264 305.602, 239.747 305.090, 238.827 304.648 C 237.560 304.040, 237.217 304.276, 237.414 305.618 C 237.558 306.594, 238.310 307.563, 239.087 307.772 C 240.203 308.072, 240.185 307.914, 239 307.015 C 237.832 306.130, 238.275 306.033, 241 306.578 C 245.439 307.464, 259.972 307.384, 264.247 306.449 C 268.334 305.555, 277.682 301.324, 278.502 299.997 C 278.841 299.449, 278.979 299.039, 278.809 299.086 C 278.639 299.133, 277.375 299.535, 276 299.979 M 176.500 311.180 C 175.400 311.795, 172.163 314.483, 169.306 317.153 C 166.450 319.822, 162.977 322.438, 161.590 322.966 C 160.202 323.493, 155.789 326.089, 151.783 328.734 C 142.520 334.851, 135.411 339, 134.194 339 C 132.497 339, 125.769 342.102, 126.304 342.637 C 127.501 343.834, 139.098 339.130, 147 334.243 C 151.675 331.352, 157.739 327.752, 160.475 326.243 C 163.211 324.735, 167.202 321.812, 169.343 319.750 C 171.484 317.687, 175.071 314.650, 177.315 313 C 181.226 310.123, 180.658 308.853, 176.500 311.180 M 64.500 343.714 C 68.565 347.634, 106.661 348.977, 118 345.600 L 123.500 343.962 117.500 344.478 C 94.693 346.439, 78.140 346.101, 66.500 343.436 C 64.565 342.993, 63.855 343.092, 64.500 343.714 M 66.813 346.683 C 67.534 346.972, 68.397 346.936, 68.729 346.604 C 69.061 346.272, 68.471 346.036, 67.417 346.079 C 66.252 346.127, 66.015 346.364, 66.813 346.683 M 74.750 348.706 C 75.987 348.944, 78.013 348.944, 79.250 348.706 C 80.487 348.467, 79.475 348.272, 77 348.272 C 74.525 348.272, 73.513 348.467, 74.750 348.706" stroke="none" fill="black" fill-rule="evenodd"/>
</svg>